<svg version="1.1" id="Layer_1" xmlns="http://www.w3.org/2000/svg" xmlns:xlink="http://www.w3.org/1999/xlink" x="0px" y="0px"
	 width="100%" viewBox="0 0 393 256" enable-background="new 0 0 393 256" xml:space="preserve">
<path fill="#FEFEFE" opacity="1.000000" stroke="none" 
	d="
M254.000000,257.000000 
	C169.333374,257.000000 85.166756,257.000000 1.000102,257.000000 
	C1.000068,171.666763 1.000068,86.333519 1.000034,1.000205 
	C131.999832,1.000136 262.999664,1.000136 393.999634,1.000068 
	C393.999756,86.333130 393.999756,171.666260 393.999878,256.999695 
	C347.500000,257.000000 301.000000,257.000000 254.000000,257.000000 
M165.504242,27.233747 
	C174.596893,33.717396 179.524155,42.868027 181.776154,53.505886 
	C183.035187,59.453350 183.575378,65.552994 184.576584,72.540924 
	C193.115799,56.341499 201.047562,40.885956 213.681046,27.760202 
	C214.941788,26.584785 216.202530,25.409367 218.441589,23.321846 
	C198.147110,23.321846 179.254929,23.321846 159.110458,23.321846 
	C161.741180,24.852789 163.370789,25.801142 165.504242,27.233747 
M181.210831,237.137558 
	C178.190872,240.947311 182.562195,239.051559 182.969711,239.054581 
	C199.941406,239.181458 216.914185,239.175369 233.886765,239.155518 
	C234.808655,239.154434 235.730255,238.892212 237.319778,238.649643 
	C236.177902,238.176636 235.729004,237.990692 234.924576,237.187241 
	C218.065506,227.313034 215.303299,210.337662 213.101212,192.406906 
	C211.419250,194.368866 209.987137,195.532593 209.201477,197.034485 
	C201.696579,211.380753 193.552261,225.272278 181.210831,237.137558 
M388.240936,236.087082 
	C379.921753,229.396942 372.321686,222.210068 368.148010,211.956192 
	C363.798584,201.270569 358.854767,190.828552 354.307861,180.221313 
	C345.692810,160.123672 336.950775,140.075867 328.688965,119.832886 
	C322.067139,103.608322 316.016968,87.148590 309.829132,70.749435 
	C305.790527,60.046120 301.979675,49.257042 298.026245,38.521301 
	C296.216400,33.606533 294.308899,28.727724 292.445648,23.832611 
	C291.896301,23.771101 291.346954,23.709591 290.797607,23.648081 
	C285.742920,33.116928 280.688263,42.585773 274.924500,52.367924 
	C269.527161,61.985226 263.985718,71.526756 258.855743,81.284599 
	C257.845978,83.205307 257.622009,86.268669 258.395813,88.282356 
	C264.716644,104.731308 271.307831,121.077499 277.941101,137.404449 
	C279.690887,141.711365 281.873474,145.842453 283.852295,150.840179 
	C286.871765,158.045303 289.988586,165.211502 292.888855,172.464279 
	C297.738342,184.591507 302.684631,196.688644 307.143341,208.960785 
	C310.613007,218.510620 313.368286,228.306900 306.121155,238.370697 
	C307.333740,238.629044 308.546021,239.111206 309.758942,239.112839 
	C336.405182,239.148865 363.051453,239.133011 389.697723,239.117050 
	C390.403534,239.116623 391.109283,239.004730 391.815063,238.944824 
	C391.849915,238.602310 391.884735,238.259781 391.919556,237.917252 
	C390.630035,237.552994 389.340485,237.188721 388.240936,236.087082 
M91.049522,24.560938 
	C89.895073,24.003050 88.742188,22.961920 87.585953,22.958189 
	C61.059387,22.872616 34.532452,22.895884 8.005611,22.922737 
	C7.002707,22.923752 6.000043,23.163507 4.997267,23.292013 
	C4.977633,23.576933 4.958000,23.861853 4.938366,24.146770 
	C5.943805,24.465530 6.949244,24.784290 8.104271,25.770227 
	C18.032627,32.516479 25.375643,41.285881 29.782339,52.568069 
	C32.680489,59.988014 36.081017,67.211769 39.257687,74.522888 
	C61.450863,125.600693 82.891823,176.977219 101.034828,229.669052 
	C102.186241,233.013046 103.741386,236.218033 105.540909,240.521210 
	C107.291779,238.057159 108.552567,236.608170 109.455086,234.962708 
	C119.150330,217.286209 128.900818,199.637634 138.302353,181.805420 
	C139.483246,179.565582 139.676468,175.947250 138.750656,173.585724 
	C128.262146,146.832321 117.343300,120.247932 106.797340,93.516632 
	C100.217911,76.839455 93.876282,60.060974 87.845192,43.178894 
	C85.649117,37.031696 86.204681,30.677898 91.049522,24.560938 
z"/>
<path fill="#353635" opacity="1.000000" stroke="none" 
	d="
M90.379028,25.129702 
	C86.204681,30.677898 85.649117,37.031696 87.845192,43.178894 
	C93.876282,60.060974 100.217911,76.839455 106.797340,93.516632 
	C117.343300,120.247932 128.262146,146.832321 138.750656,173.585724 
	C139.676468,175.947250 139.483246,179.565582 138.302353,181.805420 
	C128.900818,199.637634 119.150330,217.286209 109.455086,234.962708 
	C108.552567,236.608170 107.291779,238.057159 105.540909,240.521210 
	C103.741386,236.218033 102.186241,233.013046 101.034828,229.669052 
	C82.891823,176.977219 61.450863,125.600693 39.257687,74.522888 
	C36.081017,67.211769 32.680489,59.988014 29.782339,52.568069 
	C25.375643,41.285881 18.032627,32.516479 8.294238,25.209312 
	C10.631496,24.765917 12.778534,24.980501 14.926119,24.986137 
	C40.077042,25.052156 65.228043,25.086784 90.379028,25.129702 
z"/>
<path fill="#343535" opacity="1.000000" stroke="none" 
	d="
M283.857330,150.054260 
	C281.873474,145.842453 279.690887,141.711365 277.941101,137.404449 
	C271.307831,121.077499 264.716644,104.731308 258.395813,88.282356 
	C257.622009,86.268669 257.845978,83.205307 258.855743,81.284599 
	C263.985718,71.526756 269.527161,61.985226 275.439575,52.589600 
	C279.022156,51.986301 282.303711,51.593964 285.095856,50.212440 
	C287.788177,48.880287 289.975220,46.526871 292.422424,44.591946 
	C301.402740,53.154289 302.794312,64.757141 307.542694,74.625092 
	C311.684814,83.233276 314.262726,92.581718 317.814056,101.490562 
	C320.620789,108.531487 324.032623,115.330544 326.862640,122.363007 
	C331.976562,135.070862 336.566132,147.995728 341.901825,160.606949 
	C350.105438,179.996704 358.717194,199.214523 367.247375,218.464706 
	C368.847046,222.074707 367.822968,224.353058 364.239044,225.316635 
	C350.539124,228.999985 336.986481,230.639694 324.182800,222.156097 
	C322.016937,220.721024 319.105530,220.344406 317.083954,218.775864 
	C314.750977,216.965698 312.216766,214.693436 311.183044,212.065903 
	C308.122986,204.287827 306.138763,196.083893 303.033875,188.326660 
	C298.321838,176.554260 293.097809,164.982758 287.870911,153.425598 
	C287.221771,151.990326 285.228027,151.163193 283.857330,150.054260 
z"/>
<path fill="#383838" opacity="1.000000" stroke="none" 
	d="
M283.854797,150.447235 
	C285.228027,151.163193 287.221771,151.990326 287.870911,153.425598 
	C293.097809,164.982758 298.321838,176.554260 303.033875,188.326660 
	C306.138763,196.083893 308.122986,204.287827 311.183044,212.065903 
	C312.216766,214.693436 314.750977,216.965698 317.083954,218.775864 
	C319.105530,220.344406 322.016937,220.721024 324.182800,222.156097 
	C336.986481,230.639694 350.539124,228.999985 364.239044,225.316635 
	C367.822968,224.353058 368.847046,222.074707 367.247375,218.464706 
	C358.717194,199.214523 350.105438,179.996704 341.901825,160.606949 
	C336.566132,147.995728 331.976562,135.070862 326.862640,122.363007 
	C324.032623,115.330544 320.620789,108.531487 317.814056,101.490562 
	C314.262726,92.581718 311.684814,83.233276 307.542694,74.625092 
	C302.794312,64.757141 301.402740,53.154289 292.422424,44.591946 
	C289.975220,46.526871 287.788177,48.880287 285.095856,50.212440 
	C282.303711,51.593964 279.022156,51.986301 275.794128,52.432945 
	C280.688263,42.585773 285.742920,33.116928 290.797607,23.648081 
	C291.346954,23.709591 291.896301,23.771101 292.445648,23.832611 
	C294.308899,28.727724 296.216400,33.606533 298.026245,38.521301 
	C301.979675,49.257042 305.790527,60.046120 309.829132,70.749435 
	C316.016968,87.148590 322.067139,103.608322 328.688965,119.832886 
	C336.950775,140.075867 345.692810,160.123672 354.307861,180.221313 
	C358.854767,190.828552 363.798584,201.270569 368.148010,211.956192 
	C372.321686,222.210068 379.921753,229.396942 387.935883,236.837738 
	C387.155029,237.722015 386.679047,237.973038 386.203430,237.972458 
	C359.717041,237.939743 333.230682,237.886032 306.744324,237.834412 
	C313.368286,228.306900 310.613007,218.510620 307.143341,208.960785 
	C302.684631,196.688644 297.738342,184.591507 292.888855,172.464279 
	C289.988586,165.211502 286.871765,158.045303 283.854797,150.447235 
z"/>
<path fill="#383838" opacity="1.000000" stroke="none" 
	d="
M181.949432,236.804443 
	C193.552261,225.272278 201.696579,211.380753 209.201477,197.034485 
	C209.987137,195.532593 211.419250,194.368866 213.101212,192.406906 
	C215.303299,210.337662 218.065506,227.313034 234.617325,237.541306 
	C218.027222,237.937622 201.744324,238.005066 185.461655,237.969269 
	C184.290070,237.966690 183.120132,237.210342 181.949432,236.804443 
z"/>
<path fill="#383838" opacity="1.000000" stroke="none" 
	d="
M213.018707,28.055212 
	C201.047562,40.885956 193.115799,56.341499 184.576584,72.540924 
	C183.575378,65.552994 183.035187,59.453350 181.776154,53.505886 
	C179.524155,42.868027 174.596893,33.717396 165.367111,26.616016 
	C165.773209,25.681673 166.315262,25.090820 166.859848,25.088467 
	C181.297546,25.026028 195.736221,24.966274 210.171814,25.142982 
	C211.132507,25.154739 212.070267,27.040884 213.018707,28.055212 
z"/>
<path fill="#353434" opacity="1.000000" stroke="none" 
	d="
M90.714279,24.845320 
	C65.228043,25.086784 40.077042,25.052156 14.926119,24.986137 
	C12.778534,24.980501 10.631496,24.765917 8.219443,24.875725 
	C6.949244,24.784290 5.943805,24.465530 4.938366,24.146770 
	C4.958000,23.861853 4.977633,23.576933 4.997267,23.292013 
	C6.000043,23.163507 7.002707,22.923752 8.005611,22.922737 
	C34.532452,22.895884 61.059387,22.872616 87.585953,22.958189 
	C88.742188,22.961920 89.895073,24.003050 90.714279,24.845320 
z"/>
<path fill="#343334" opacity="1.000000" stroke="none" 
	d="
M213.349884,27.907707 
	C212.070267,27.040884 211.132507,25.154739 210.171814,25.142982 
	C195.736221,24.966274 181.297546,25.026028 166.859848,25.088467 
	C166.315262,25.090820 165.773209,25.681673 165.115189,26.373890 
	C163.370789,25.801142 161.741180,24.852789 159.110458,23.321846 
	C179.254929,23.321846 198.147110,23.321846 218.441589,23.321846 
	C216.202530,25.409367 214.941788,26.584785 213.349884,27.907707 
z"/>
<path fill="#020101" opacity="1.000000" stroke="none" 
	d="
M306.432739,238.102554 
	C333.230682,237.886032 359.717041,237.939743 386.203430,237.972458 
	C386.679047,237.973038 387.155029,237.722015 387.840881,237.206421 
	C389.340485,237.188721 390.630035,237.552994 391.919556,237.917252 
	C391.884735,238.259781 391.849915,238.602310 391.815063,238.944824 
	C391.109283,239.004730 390.403534,239.116623 389.697723,239.117050 
	C363.051453,239.133011 336.405182,239.148865 309.758942,239.112839 
	C308.546021,239.111206 307.333740,238.629044 306.432739,238.102554 
z"/>
<path fill="#020101" opacity="1.000000" stroke="none" 
	d="
M181.580139,236.971008 
	C183.120132,237.210342 184.290070,237.966690 185.461655,237.969269 
	C201.744324,238.005066 218.027222,237.937622 234.795105,237.850052 
	C235.729004,237.990692 236.177902,238.176636 237.319778,238.649643 
	C235.730255,238.892212 234.808655,239.154434 233.886765,239.155518 
	C216.914185,239.175369 199.941406,239.181458 182.969711,239.054581 
	C182.562195,239.051559 178.190872,240.947311 181.580139,236.971008 
z"/>
</svg>