<svg xmlns="http://www.w3.org/2000/svg" width="100%" viewBox="0 0 1024 576" height="150" xmlns:v="https://vecta.io/nano"><path d="M763.902 440.089c6.812 7.53 14.997 12.931 22.73 18.855l-.415 1.302H662.398c-.53-1.621.049-2.483.664-3.25 5.889-7.357 5.574-15.836 4.011-24.314-3.231-17.529-11.534-33.3-17.998-49.676L593.974 245.79c-1.94-4.785-1.718-8.599.806-13.118l41.433-75.316c.24-.438.43-.91.715-1.317 1.389-1.987 2.052-5.099 4.98-5.077 3.278.024 3.304 3.37 4.065 5.57 14.325 41.393 29.816 82.349 46.223 122.955 19.528 48.329 39.805 96.345 61.184 143.888 2.669 5.936 5.675 11.704 10.52 16.713zm-417.34-54.771c-16.297-42.856-33.371-84.977-51.366-126.722l-31.407-71.874c-5.799-13.408-15.796-22.864-27.726-30.67-1.851-1.211-4.341-1.825-5.166-4.973h125.105c.705 1.264.233 2.166-.443 2.925-6.558 7.369-6.646 15.893-4.693 24.902 3.556 16.398 10.808 31.461 16.947 46.905l49.4 122.824 8.001 19.934c1.179 2.852.882 5.293-.626 8.033l-43.685 79.777c-1.056 1.924-1.668 4.89-4.644 4.492-2.718-.364-3.191-3.152-3.978-5.293L346.56 385.32zm185.571 20.78c2.728 22.873 11.824 41.427 32.695 52.854-4.376 2.748-79.332 2.819-83.916.145 21.402-19.006 34.085-43.982 47.687-69.339 3.721 5.676 1.82 11.164 3.534 16.341zm.452-249.516c-15.762 15.34-26.198 33.932-36.421 52.675-2.25 4.125-3.802 8.686-7.372 13.09-2.578-6.577-2.076-12.619-2.905-18.408-2.941-20.518-10.422-38.175-29.442-48.99-1.367-.777-3.064-1.427-3.322-3.882h84.416c-.684 2.954-3.121 3.743-4.953 5.515zm117.013 396.051l-7.86-.421c-12.231-1.636-20.552-9.903-22.739-22.471-2.009-11.548 3.576-23.63 13.382-28.945 8.087-4.384 23.974-2.938 31.263 3.439 9.018 7.889 11.607 18.19 8.429 29.482-3.068 10.897-10.502 17.488-22.475 18.916m-17.856-11.965c4.86 6.409 11.289 9.416 19.189 7.658 7.82-1.74 12.044-7.296 13.328-15.045 1.166-7.033.55-13.959-2.516-20.445-3.761-7.957-11.6-11.93-20.082-10.512-7.093 1.186-13.091 7.49-14.114 15.558-.976 7.697-.299 15.268 4.194 22.786zm94.352-33.925c-.086-.786-.165-1.122-.138-1.449.21-2.536-1.588-6.394 3.12-6.313 4.754.082 3.05 4.03 2.832 6.442-1.213 13.464-.222 26.945-.583 40.411-.052 1.928.508 3.967-1.408 6.818l-35.489-37.56c-2.035 1.408-1.25 3.213-1.255 4.695l.126 27.46c.017 2.435.118 4.974-3.464 4.599-3.317-.347-2.416-2.694-2.349-4.883.451-14.805.51-29.613-.037-44.419-.041-1.117-.684-2.302 1.735-4.069l37.297 39.559c.14-11.108.589-20.965-.387-31.292zM509.438 520.62l13.297 29.879c-5.523 3.372-8.638 2.218-10.17-3.585-.085-.321-.181-.64-.276-.958-3.25-10.807-4.334-11.619-15.589-11.676-13.225-.067-13.358.034-17.331 13.181-1.512 5.001-1.847 5.181-7.181 3.631-.176-2.959 1.879-5.167 2.974-7.641l18.246-40.466c.924-2.024 1.439-4.943 4.354-4.799 2.579.128 2.914 2.896 3.783 4.788l7.895 17.645m-21.862 8.815c4.963 2.649 10.245 1 15.382 1.027 1.752.009 1.938-1.669 1.289-3.021-2.752-5.724-4.447-11.97-8.408-17.794-4.029 6.246-5.803 12.82-8.263 19.787zm-98.449 15.786l19.553-43.56c.726-1.611 1.207-3.735 3.533-3.66 1.925.062 2.71 1.746 3.395 3.272l21.581 48.224c.178.4.022.948.022 1.383-6.231 2.67-8.204 1.822-9.993-4.199-3.654-12.302-3.674-12.454-16.32-12.337-13.213.122-10.592-2.647-16.627 13.212-1.827 4.8-2.307 5.145-7.149 3.436-.666-2.219 1.21-3.62 2.003-5.771m28.481-21.401l-6.873-14.829c-3.529 7.616-6.889 13.982-9.139 21.521 6.34.256 12.006.617 17.533-.174.592-2.621-.599-4.149-1.52-6.518zm343.762 10.502c-3.755-.474-5.774.954-6.933 4.055-1.163 3.109-3.132 6.014-3.756 9.202-.914 4.673-3.17 5.278-7.666 3.442l8.471-18.977 13.188-29.087c.893-1.962 1.648-4.48 4.032-4.685 2.755-.237 3.066 2.665 3.897 4.505l21.376 47.727c-5.481 3.211-8.469 2.192-10.109-3.283-3.798-12.678-4.12-12.921-17.056-12.907l-5.443.008m2.977-19.433c-2.214 4.889-4.677 9.69-5.911 15.291 5.257.965 10.032.46 14.78.475 1.538.005 2.924-.833 2.289-2.4-2.488-6.137-4.162-12.695-8.521-18.568l-2.637 5.202zm-499.898-4.407c1.081-2.844 2.291-5.271 2.879-7.841 1.006-4.399 3.56-4.516 7.537-3.052l-7.24 16.414-15.117 33.666c-.603 1.34-.969 3.046-2.75 3.219-1.802.175-2.572-1.323-3.193-2.688l-22.213-49.052c-.18-.399-.023-.95-.023-1.397 6.616-2.223 7.661-1.516 10.037 4.216l16.115 37.267c5.789-10.586 9.31-20.728 13.968-30.754zm331.542-11.76l10.472-.01c2.039-.004 3.654.488 3.672 2.982.021 2.807-1.957 2.669-3.816 2.525l-9.406-.919c-3.76-.44-4.931 1.3-4.879 4.9l.247 38.896c.023 2.723-.089 4.964-3.731 5.079-3.759.119-5.102-1.478-4.662-5.117 1.483-12.259.655-24.573.681-36.862.014-6.587-.616-6.878-7.207-6.913-3.632-.02-7.126 1.791-11.078.683-.565-3.76.859-5.382 4.773-5.313 8.143.144 16.291.06 24.934.07zm-236.076 13.29l-.316 29.462c-.056 5.609 1.202 6.809 6.774 6.131 2.964-.361 5.883-1.071 8.836-1.541 1.674-.266 3.497-.506 3.818 1.911.247 1.857-.417 3.634-2.35 3.811-7.628.698-15.298.72-22.911-.03-2.71-.267-2.115-3.07-1.916-4.947 1.111-10.463.778-20.957.742-31.44-.013-3.817-.434-7.638-.763-11.448-.257-2.977-.055-5.236 3.933-5.257 3.609-.018 4.701 1.515 4.392 4.862-.244 2.647-.167 5.324-.239 8.486zM319.239 526c.004 5.817.267 11.151-.066 16.447-.295 4.696 1.832 5.762 5.944 5.298 4.252-.48 8.395-1.9 12.958-1.641 1.066 3.708.012 5.953-3.969 6.023-6.478.114-12.96.041-19.439-.011-1.989-.016-3.627-.495-3.433-3.118 1.212-16.411.303-32.845.418-49.367 2.317-1.482 4.712-.994 7.586-.376l.001 26.745zm215.424-15.824l-.349-6.444c-.387-2.811-.3-4.923 3.443-5.059 3.455-.125 4.665 1.134 4.602 4.627l-.28 38.418c-.017 5.976.659 6.588 6.702 5.897 2.961-.339 5.876-1.074 8.824-1.556 1.489-.244 3.179-.494 3.541 1.604.346 2.005-.234 3.964-2.484 4.167-7.457.675-14.944.453-22.411.059-1.851-.098-2.288-1.695-2.131-3.353 1.196-12.614.241-25.259.544-38.362zm-241.31 30.51l.732 6.403c.346 2.83-.139 4.935-3.684 5.071-3.371.129-4.824-1.143-4.718-4.652.449-14.793.591-29.594.021-44.387-.143-3.702 1.613-4.512 4.843-4.424 3.371.091 3.741 2.001 3.448 4.647-1.358 12.27-.347 24.584-.643 37.341z"/></svg>