<svg version="1.1" id="Layer_1" xmlns="http://www.w3.org/2000/svg" xmlns:xlink="http://www.w3.org/1999/xlink" x="0px" y="0px"
	 width="100%" viewBox="0 0 1024 560" enable-background="new 0 0 1024 560" xml:space="preserve">
<path fill="#000000" opacity="1.000000" stroke="none" 
	d="
M320.688965,510.240723 
	C307.355652,471.806274 293.215210,434.080383 278.476074,396.590637 
	C264.222900,360.336853 249.580856,324.230042 234.630447,288.257782 
	C215.715149,242.745682 195.598206,197.742218 176.264679,152.409714 
	C166.333313,129.123047 151.457977,110.866821 129.829727,97.934700 
	C127.881813,96.769997 125.764221,95.657181 124.630714,93.466408 
	C127.897270,91.381355 297.208252,90.824280 303.107300,92.834984 
	C303.761658,94.179909 302.812531,95.054924 302.076508,95.893852 
	C292.702209,106.579155 292.042236,118.818474 294.976898,132.044922 
	C299.007660,150.211472 306.412537,167.133865 313.303894,184.263153 
	C329.709564,225.041519 346.114685,265.820129 362.530487,306.594421 
	C375.028839,337.638336 387.463043,368.708588 400.128601,399.684204 
	C402.265778,404.911041 402.068085,409.125488 399.246460,414.207886 
	C378.229370,452.065125 357.546265,490.107666 336.730621,528.076904 
	C335.577759,530.179871 334.908295,533.174744 331.675781,532.812073 
	C328.770599,532.486084 327.808380,529.820618 326.925751,527.511414 
	C324.787109,521.916199 322.831360,516.251160 320.688965,510.240723 
z"/>
<path fill="#000000" opacity="1.000000" stroke="none" 
	d="
M692.980469,355.868469 
	C675.789429,312.843353 658.884094,270.119415 641.549072,227.570541 
	C638.614868,220.368408 639.067688,214.660461 642.851685,207.915710 
	C662.489319,172.913193 681.685730,137.663147 701.040405,102.501846 
	C702.244629,100.314140 703.366211,98.066849 704.747925,95.995132 
	C706.016052,94.093712 707.307007,91.670776 710.054626,92.111092 
	C712.483765,92.500381 713.178040,94.948204 713.893921,96.957329 
	C717.022156,105.736198 720.094177,114.535645 723.114258,123.352402 
	C734.823242,157.535522 747.858032,191.221893 760.885193,224.916840 
	C791.333252,303.671448 824.371887,381.340790 858.350891,458.620178 
	C860.964050,464.563232 863.916077,470.375153 866.209534,476.437592 
	C874.719055,498.930634 891.724365,513.786438 910.877136,526.789062 
	C912.338440,527.781067 914.274597,528.306213 914.897705,530.714111 
	C913.003418,533.183350 910.137146,532.230347 907.712341,532.232910 
	C861.061890,532.281494 814.411316,532.247375 767.760803,532.239075 
	C759.596985,532.237610 751.433105,532.295105 743.269348,532.280273 
	C741.491882,532.277039 739.604736,532.626465 738.163025,531.478333 
	C737.351379,529.702515 738.442017,528.718018 739.267639,527.737671 
	C746.999390,518.556641 747.750793,507.850891 746.190979,496.602142 
	C744.274841,482.783386 739.353333,469.900391 734.125854,457.088531 
	C720.415466,423.485779 706.784180,389.850769 692.980469,355.868469 
z"/>
<path fill="#000000" opacity="1.000000" stroke="none" 
	d="
M504.608154,169.551712 
	C500.202148,177.477814 497.208282,185.778900 491.947144,193.172363 
	C489.211578,191.063080 489.872437,188.580887 489.672943,186.400055 
	C488.233704,170.664597 486.776917,154.938995 480.978271,140.017731 
	C474.336243,122.926254 464.123291,108.770111 447.977722,99.379295 
	C445.165466,97.743591 442.258453,96.100464 439.407654,92.452209 
	C480.440735,92.452209 520.439331,92.452209 560.437988,92.452209 
	C560.709045,92.800125 560.980042,93.148048 561.251099,93.495964 
	C536.294128,114.266556 520.430115,141.667221 504.608154,169.551712 
z"/>
<path fill="#000000" opacity="1.000000" stroke="none" 
	d="
M584.989258,532.321777 
	C550.130249,532.319946 515.768738,532.319946 481.797333,532.319946 
	C480.606140,529.506348 481.895966,528.509399 483.001862,527.572998 
	C498.582306,514.380737 510.181061,497.937805 520.820679,480.789551 
	C529.587585,466.659698 538.335083,452.488312 544.895630,437.123413 
	C545.661255,435.330444 546.495972,432.828705 548.829895,433.225006 
	C551.604980,433.696259 551.054871,436.541748 551.166992,438.592926 
	C552.378723,460.753021 556.387451,482.111725 568.201172,501.430054 
	C574.885498,512.360535 584.086182,520.541504 594.822937,527.221008 
	C596.298035,528.138672 598.364502,528.435730 598.926086,531.236572 
	C594.592529,533.273499 589.932556,531.959106 584.989258,532.321777 
z"/>
</svg>