<svg version="1.1" id="Layer_1" xmlns="http://www.w3.org/2000/svg" xmlns:xlink="http://www.w3.org/1999/xlink" x="0px" y="0px"
	 width="100%" viewBox="0 0 1024 576" enable-background="new 0 0 1024 576" xml:space="preserve">
<path fill="#000000" opacity="1.000000" stroke="none" 
	d="
M763.901611,440.088501 
	C770.713196,447.618896 778.899109,453.019104 786.631287,458.944000 
	C786.492981,459.378082 786.354736,459.812134 786.216431,460.246216 
	C744.887817,460.246216 703.559143,460.246216 662.398315,460.246216 
	C661.868347,458.624725 662.447693,457.763184 663.061951,456.995850 
	C668.951355,449.638428 668.635620,441.159973 667.072998,432.682343 
	C663.841919,415.153015 655.538696,399.382202 649.075439,383.006775 
	C630.980225,337.160583 612.490479,291.469452 593.974609,245.790833 
	C592.035034,241.005951 592.256958,237.192322 594.780945,232.672592 
	C608.751099,207.655960 622.433655,182.478729 636.213989,157.356155 
	C636.454285,156.917923 636.644348,156.445801 636.928772,156.039108 
	C638.318237,154.052521 638.980896,150.940521 641.909241,150.962143 
	C645.187500,150.986359 645.213196,154.332016 645.974731,156.532532 
	C660.299561,197.925385 675.790344,238.881638 692.197815,279.487305 
	C711.725952,327.816498 732.002625,375.832092 753.381775,423.375793 
	C756.051147,429.311981 759.056641,435.080200 763.901611,440.088501 
z"/>
<path fill="#000000" opacity="1.000000" stroke="none" 
	d="
M346.561829,385.318054 
	C330.265198,342.462311 313.191010,300.340576 295.196045,258.595978 
	C284.846313,234.586685 274.166870,210.719604 263.788727,186.722382 
	C257.989990,173.314026 247.992630,163.858139 236.062943,156.052002 
	C234.211929,154.840820 231.721603,154.227127 230.897232,151.078873 
	C272.800842,151.078873 314.457581,151.078873 356.002655,151.078873 
	C356.708008,152.342575 356.235504,153.244797 355.560120,154.003708 
	C349.002380,161.372253 348.913635,169.897064 350.867432,178.905853 
	C354.423798,195.303757 361.675598,210.367111 367.814209,225.810791 
	C384.113922,266.818359 400.729675,307.700287 417.213776,348.634552 
	C419.888367,355.276306 422.479401,361.952209 425.215271,368.568451 
	C426.394592,371.420410 426.097198,373.861115 424.588989,376.601135 
	C409.969299,403.161316 395.486084,429.796570 380.904419,456.377777 
	C379.848724,458.302185 379.236603,461.267639 376.260895,460.869324 
	C373.542480,460.505432 373.069550,457.717529 372.283142,455.575897 
	C363.731293,432.287018 355.221008,408.982941 346.561829,385.318054 
z"/>
<path fill="#000000" opacity="1.000000" stroke="none" 
	d="
M532.132874,406.097900 
	C534.861023,428.971344 543.957153,447.525269 564.827393,458.951508 
	C560.451294,461.699707 485.495850,461.770538 480.911285,459.096039 
	C502.312866,440.089905 514.996765,415.114410 528.598450,389.756714 
	C532.319580,395.432465 530.418518,400.920654 532.132874,406.097900 
z"/>
<path fill="#000000" opacity="1.000000" stroke="none" 
	d="
M532.585388,156.582153 
	C516.823242,171.922104 506.386993,190.513672 496.164032,209.257019 
	C493.914368,213.381607 492.362366,217.942535 488.791901,222.346741 
	C486.213776,215.770020 486.716248,209.727905 485.886475,203.939102 
	C482.945404,183.421432 475.464081,165.764053 456.444061,154.949234 
	C455.076660,154.171753 453.379944,153.521805 453.121857,151.066879 
	C481.198273,151.066879 509.167572,151.066879 537.538269,151.066879 
	C536.854736,154.020630 534.417542,154.809753 532.585388,156.582153 
z"/>
<path fill="#000000" opacity="1.000000" stroke="none" 
	d="
M649.598389,552.632751 
	C646.704041,552.551208 644.199890,552.541321 641.738403,552.212036 
	C629.507507,550.575806 621.186707,542.309143 618.999817,529.741455 
	C616.990356,518.193176 622.575867,506.111725 632.381897,500.796234 
	C640.469055,496.412476 656.355591,497.858643 663.644775,504.234955 
	C672.662781,512.123596 675.251953,522.425171 672.073364,533.717163 
	C669.005737,544.614624 661.571045,551.204895 649.598389,552.632751 
M631.742493,540.667480 
	C636.602295,547.076477 643.031860,550.083374 650.931885,548.325012 
	C658.751770,546.584534 662.975464,541.028625 664.260376,533.280212 
	C665.426575,526.247681 664.809937,519.321350 661.744080,512.835327 
	C657.982788,504.878021 650.144287,500.905457 641.662476,502.323486 
	C634.569763,503.509277 628.571228,509.813843 627.548157,517.881531 
	C626.572021,525.578979 627.249023,533.149414 631.742493,540.667480 
z"/>
<path fill="#000000" opacity="1.000000" stroke="none" 
	d="
M726.093506,506.742950 
	C726.007507,505.956482 725.928101,505.620911 725.955078,505.294159 
	C726.164917,502.757874 724.367065,498.899841 729.074890,498.980896 
	C733.829163,499.062805 732.124451,503.011047 731.907227,505.423279 
	C730.694397,518.887573 731.684937,532.368591 731.324646,545.833923 
	C731.273071,547.761475 731.832458,549.801331 729.916565,552.652039 
	C717.950623,539.988098 706.202087,527.554199 694.427185,515.092468 
	C692.391785,516.500671 693.176941,518.305481 693.172302,519.787720 
	C693.143616,528.940918 693.234741,538.094543 693.297974,547.247925 
	C693.314819,549.682495 693.415649,552.222229 689.834351,551.847290 
	C686.517700,551.500061 687.418152,549.153259 687.484924,546.964172 
	C687.936218,532.159485 687.995056,517.351013 687.448120,502.545654 
	C687.406799,501.428680 686.763794,500.243744 689.183228,498.476257 
	C701.199951,511.221802 713.370667,524.130676 726.480164,538.035217 
	C726.620178,526.926758 727.068848,517.070374 726.093506,506.742950 
z"/>
<path fill="#000000" opacity="1.000000" stroke="none" 
	d="
M509.438110,520.619873 
	C513.969849,530.824097 518.358337,540.675476 522.734619,550.499329 
	C517.212036,553.871765 514.096985,552.717529 512.564819,546.914490 
	C512.479980,546.593201 512.384033,546.274780 512.288330,545.956421 
	C509.038757,535.149658 507.954315,534.337463 496.698975,534.280212 
	C483.474060,534.212952 483.341400,534.313843 479.367706,547.461121 
	C477.856140,552.462219 477.521088,552.641785 472.186554,551.092468 
	C472.010803,548.133057 474.065674,545.925781 475.160248,543.451355 
	C481.145844,529.919861 487.262878,516.446106 493.405914,502.984955 
	C494.329681,500.960663 494.844971,498.041565 497.759460,498.186371 
	C500.338470,498.314453 500.673340,501.082855 501.542847,502.974518 
	C504.180847,508.713898 506.718262,514.499512 509.438110,520.619873 
M487.575867,529.434387 
	C492.539337,532.083069 497.820740,530.434631 502.957947,530.461243 
	C504.710419,530.470276 504.896332,528.792114 504.246613,527.440735 
	C501.494751,521.716980 499.799194,515.470825 495.838898,509.647034 
	C491.809937,515.893066 490.036377,522.467224 487.575867,529.434387 
z"/>
<path fill="#000000" opacity="1.000000" stroke="none" 
	d="
M389.129150,545.220154 
	C395.755280,530.467346 402.198761,516.054810 408.682037,501.660217 
	C409.407867,500.048737 409.888916,497.924866 412.214996,498.000153 
	C414.140289,498.062439 414.925018,499.745972 415.610229,501.272095 
	C422.823395,517.338257 430.019623,533.411987 437.191406,549.496582 
	C437.369537,549.896118 437.213867,550.444458 437.213867,550.880005 
	C430.983124,553.549683 429.009766,552.702087 427.221252,546.680908 
	C423.567230,534.379211 423.546844,534.226501 410.901672,534.343567 
	C397.688934,534.465759 400.310120,531.696594 394.275055,547.555542 
	C392.448425,552.355591 391.968506,552.700928 387.125977,550.991516 
	C386.459534,548.772705 388.336243,547.371460 389.129150,545.220154 
M417.609741,523.819397 
	C415.477844,519.219727 413.345947,514.620117 410.736511,508.990112 
	C407.207672,516.606018 403.847046,522.972351 401.597473,530.511597 
	C407.937164,530.767334 413.603241,531.128967 419.130066,530.337585 
	C419.721588,527.716492 418.530914,526.188721 417.609741,523.819397 
z"/>
<path fill="#000000" opacity="1.000000" stroke="none" 
	d="
M761.369629,534.321045 
	C757.614868,533.847107 755.596069,535.275085 754.436157,538.376343 
	C753.273438,541.484985 751.303894,544.390259 750.680237,547.578735 
	C749.766235,552.251953 747.510132,552.856628 743.014404,551.020325 
	C745.876709,544.603577 748.657227,538.312927 751.485046,532.043640 
	C755.862183,522.339600 760.264343,512.646729 764.673096,502.957031 
	C765.565674,500.995300 766.321106,498.476685 768.705139,498.271667 
	C771.460388,498.034790 771.770691,500.936707 772.601868,502.776703 
	C779.781616,518.669861 786.871033,534.603943 793.977539,550.503845 
	C788.496826,553.715149 785.508423,552.696167 783.868225,547.220825 
	C780.070374,534.542969 779.748718,534.299561 766.812683,534.313538 
	C765.148499,534.315308 763.484375,534.317200 761.369629,534.321045 
M764.346924,514.887817 
	C762.132446,519.776489 759.670105,524.577393 758.436218,530.178711 
	C763.693054,531.143982 768.468079,530.638428 773.216187,530.653503 
	C774.753967,530.658325 776.140198,529.820007 775.505005,528.253357 
	C773.016846,522.116699 771.343384,515.557983 766.984314,509.685547 
	C765.997253,511.629059 765.330750,512.941345 764.346924,514.887817 
z"/>
<path fill="#000000" opacity="1.000000" stroke="none" 
	d="
M264.449707,510.480591 
	C265.530640,507.636383 266.740936,505.209412 267.328583,502.640015 
	C268.334564,498.241455 270.888458,498.124268 274.865906,499.588257 
	C272.396454,505.191742 270.038269,510.609161 267.626068,516.002441 
	C262.603638,527.231750 257.555786,538.449707 252.509277,549.668274 
	C251.906479,551.008301 251.540710,552.714417 249.758957,552.887756 
	C247.956863,553.063049 247.186478,551.565002 246.565796,550.199646 
	C239.137741,533.859802 231.733810,517.508911 224.352859,501.147705 
	C224.172974,500.748932 224.330200,500.198090 224.330200,499.750641 
	C230.946518,497.527985 231.991699,498.234985 234.366928,503.966797 
	C239.377380,516.057800 244.735077,528.004944 250.481537,541.234131 
	C256.270477,530.648315 259.791901,520.506592 264.449707,510.480591 
z"/>
<path fill="#000000" opacity="1.000000" stroke="none" 
	d="
M595.991699,498.720520 
	C599.814392,498.717224 603.139038,498.717804 606.463745,498.710907 
	C608.502563,498.706696 610.117310,499.198639 610.135864,501.692902 
	C610.156799,504.499542 608.178528,504.361511 606.319702,504.217926 
	C603.179199,503.975311 600.042114,503.664795 596.913452,503.298859 
	C593.153076,502.859070 591.982849,504.598450 592.034546,508.199066 
	C592.220703,521.162781 592.172668,534.129639 592.281677,547.094727 
	C592.304565,549.817932 592.192627,552.058716 588.550293,552.173950 
	C584.791504,552.292786 583.448181,550.696228 583.888550,547.056763 
	C585.371887,534.797546 584.543762,522.484253 584.569092,510.194489 
	C584.582703,503.607880 583.952820,503.316895 577.362488,503.281189 
	C573.730347,503.261505 570.236938,505.071838 566.284424,503.963806 
	C565.718933,500.204010 567.143127,498.581879 571.057373,498.650940 
	C579.200684,498.794708 587.348083,498.711334 595.991699,498.720520 
z"/>
<path fill="#000000" opacity="1.000000" stroke="none" 
	d="
M359.915894,512.011047 
	C359.806061,522.164124 359.696686,531.818665 359.600250,541.473389 
	C359.544220,547.082336 360.802063,548.282593 366.374664,547.604797 
	C369.338409,547.244202 372.257935,546.533691 375.210632,546.064148 
	C376.884491,545.797974 378.707733,545.557739 379.029083,547.974670 
	C379.275909,549.831177 378.611725,551.608887 376.678680,551.785950 
	C369.051178,552.484192 361.380768,552.505981 353.767517,551.755615 
	C351.057098,551.488403 351.652405,548.685669 351.851624,546.808472 
	C352.962280,536.345093 352.629608,525.851624 352.593231,515.368164 
	C352.579987,511.550781 352.158813,507.730621 351.829987,503.919830 
	C351.573120,500.943329 351.775269,498.683502 355.763306,498.663239 
	C359.372070,498.644958 360.463898,500.178436 360.154877,503.525299 
	C359.910461,506.172363 359.987518,508.849091 359.915894,512.011047 
z"/>
<path fill="#000000" opacity="1.000000" stroke="none" 
	d="
M319.238586,525.999939 
	C319.242859,531.817200 319.505249,537.150757 319.172180,542.446899 
	C318.876801,547.143372 321.004272,548.208740 325.116241,547.744629 
	C329.368439,547.264648 333.511017,545.844910 338.074280,546.103271 
	C339.140228,549.810791 338.086365,552.056641 334.105713,552.126343 
	C327.627838,552.239868 321.146027,552.167297 314.666351,552.115784 
	C312.676971,552.099976 311.039764,551.620483 311.233459,548.997803 
	C312.445526,532.586914 311.536377,516.153198 311.651917,499.631134 
	C313.968719,498.149353 316.363953,498.637390 319.237671,499.254730 
	C319.237671,508.002686 319.237671,516.751343 319.238586,525.999939 
z"/>
<path fill="#000000" opacity="1.000000" stroke="none" 
	d="
M534.662903,510.176147 
	C534.556396,507.709320 534.585205,505.700226 534.314087,503.732452 
	C533.926819,500.921936 534.014221,498.809235 537.757324,498.673676 
	C541.212585,498.548584 542.422363,499.807739 542.359436,503.300354 
	C542.129028,516.104065 542.114563,528.912109 542.079102,541.718689 
	C542.062561,547.694275 542.737671,548.306702 548.781006,547.615906 
	C551.742493,547.277405 554.656921,546.542297 557.604614,546.060181 
	C559.093872,545.816528 560.783142,545.566650 561.145325,547.664307 
	C561.491577,549.669373 560.911316,551.627808 558.660889,551.831543 
	C551.203430,552.507019 543.717224,552.284729 536.249878,551.890930 
	C534.398926,551.793335 533.962280,550.195557 534.119324,548.538391 
	C535.314880,535.923950 534.360718,523.279175 534.662903,510.176147 
z"/>
<path fill="#000000" opacity="1.000000" stroke="none" 
	d="
M293.353333,540.685608 
	C293.602173,543.131897 293.843628,545.110291 294.085205,547.088745 
	C294.430847,549.919189 293.946533,552.024170 290.401489,552.159485 
	C287.030457,552.288086 285.577271,551.016541 285.683838,547.507690 
	C286.133301,532.714294 286.275330,517.913818 285.705292,503.121155 
	C285.562622,499.419006 287.318634,498.609436 290.548279,498.696930 
	C293.919006,498.788239 294.289429,500.698151 293.996643,503.344299 
	C292.639008,515.614502 293.649780,527.927979 293.353333,540.685608 
z"/>
</svg>